{"title":"Merlin 2008 S05E01 HDTV XviD-DEF","uid":7703908,"size":375515620,"categoryP":"video","categoryS":"tv_shows","magnet":"?xt=urn:btih:b8f6db9fdf871eda1bfbff7f4175eb4f31ea3664&amp;dn=Merlin+2008+S05E01+HDTV+XviD-DEF&amp;tr=udp%3A%2F%2Ftracker.openbittorrent.com%3A80&amp;tr=udp%3A%2F%2Fopen.demonii.com%3A1337&amp;tr=udp%3A%2F%2Ftracker.coppersurfer.tk%3A6969&amp;tr=udp%3A%2F%2Fexodus.desync.com%3A6969","seeders":0,"leechers":0,"uploader":"ablaublas","files":1,"time":1349627051,"description":"Complete name                  : Merlin 2008.S05E01.HDTV.XviD-DEF.avi\nFormat                         : AVI\nFormat/Info                    : Audio Video Interleave\nFile size                      : 358 MiB\nDuration                       : 42mn 38s\nOverall bit rate               : 1 174 Kbps\nWriting application            : MEncoder SVN-r30881(20100311-gcc4.3.3)\nWriting library                : MPlayer\n\nVideo\nID                             : 0\nFormat                         : MPEG-4 Visual\nFormat profile                 : Advanced Simple@L5\nFormat settings, BVOP          : 2\nFormat settings, QPel          : No\nFormat settings, GMC           : No warppoints\nFormat settings, Matrix        : Default (H.263)\nCodec ID                       : XVID\nCodec ID/Hint                  : XviD\nDuration                       : 42mn 38s\nBit rate                       : 1 033 Kbps\nWidth                          : 720 pixels\nHeight                         : 404 pixels\nDisplay aspect ratio           : 16:9\nOriginal display aspect ratio  : 16:9\nFrame rate                     : 23.976 fps\nColor space                    : YUV\nChroma subsampling             : 4:2:0\nBit depth                      : 8 bits\nScan type                      : Progressive\nCompression mode               : Lossy\nBits/(Pixel*Frame)             : 0.148\nStream size                    : 315 MiB (88%)\nWriting library                : XviD 1.2.1 (UTC 2008-12-04)\n\nAudio\nID                             : 1\nFormat                         : MPEG Audio\nFormat version                 : Version 1\nFormat profile                 : Layer 3\nMode                           : Joint stereo\nMode extension                 : MS Stereo\nCodec ID                       : 55\nCodec ID/Hint                  : MP3\nDuration                       : 42mn 38s\nBit rate mode                  : Constant\nBit rate                       : 128 Kbps\nChannel(s)                     : 2 channels\nSampling rate                  : 48.0 KHz\nCompression mode               : Lossy\nDelay relative to video        : 42ms\nStream size                    : 39.0 MiB (11%)\nAlignment                      : Aligned on interleaves\nInterleave, duration           : 24 ms (0.58 video frame)\nInterleave, preload duration   : 504 ms\n","torrent":{"xt":"urn:btih:b8f6db9fdf871eda1bfbff7f4175eb4f31ea3664","amp;dn":"Merlin+2008+S05E01+HDTV+XviD-DEF","amp;tr":["udp%3A%2F%2Ftracker.openbittorrent.com%3A80","udp%3A%2F%2Fopen.demonii.com%3A1337","udp%3A%2F%2Ftracker.coppersurfer.tk%3A6969","udp%3A%2F%2Fexodus.desync.com%3A6969"],"infoHash":"b8f6db9fdf871eda1bfbff7f4175eb4f31ea3664","infoHashBuffer":{"type":"Buffer","data":[184,246,219,159,223,135,30,218,27,251,255,127,65,117,235,79,49,234,54,100]},"announce":[],"urlList":[]}}